<?xml version="1.0" encoding="UTF-8"?>
<svg width="48px" height="48px" viewBox="0 0 48 48" version="1.1" xmlns="http://www.w3.org/2000/svg" xmlns:xlink="http://www.w3.org/1999/xlink">
    <title>Logo</title>
    <g id="Logo" stroke="none" stroke-width="1" fill="none" fill-rule="evenodd">
        <path d="M17,34 L15,34 C14.4477153,34 14,33.5522847 14,33 L14,23 C14,22.4477153 13.5522847,22 13,22 L11,22 C10.4477153,22 10,21.5522847 10,21 L10,19 C10,18.4477153 10.4477153,18 11,18 L13,18 C13.5522847,18 14,17.5522847 14,17 L14,15 C14,14.4477153 14.4477153,14 15,14 L17,14 C17.5522847,14 18,14.4477153 18,15 L18,33 C18,33.5522847 17.5522847,34 17,34 Z M34,30 L34,33 C34,33.5522847 33.5522847,34 33,34 L27,34 C26.4477153,34 26,33.5522847 26,33 L26,30 L26,30 L34,30 Z M26,18 L26,30 L23,30 C22.4477153,30 22,29.5522847 22,29 L22,19 C22,18.4477153 22.4477153,18 23,18 L26,18 L26,18 Z M38,19 L38,29 C38,29.5522847 37.5522847,30 37,30 L34,30 L34,30 L34,18 L37,18 C37.5522847,18 38,18.4477153 38,19 Z M34,15 L34,18 L34,18 L26,18 L26,15 C26,14.4477153 26.4477153,14 27,14 L33,14 C33.5522847,14 34,14.4477153 34,15 Z" id="Decade" fill="#FFFFFF"></path>
    </g>
</svg>