<?xml version="1.0" encoding="UTF-8"?>
<svg width="120px" height="120px" viewBox="0 0 120 120" version="1.1" xmlns="http://www.w3.org/2000/svg" xmlns:xlink="http://www.w3.org/1999/xlink">
    <title>Mask</title>
    <g id="Mask" stroke="none" stroke-width="1" fill="none" fill-rule="evenodd">
        <path d="M32,28.0212728 L35.5959312,25.3052005 C36.2569816,24.8058971 37.1976342,24.937019 37.6969376,25.5980693 C37.8936014,25.8584414 38,26.1758404 38,26.5021381 L38,92.9999111 C38,94.6567653 36.6568542,95.9999111 35,95.9999111 L29,95.9999111 C27.3431458,95.9999111 26,94.6567653 26,92.9999111 L26,40.0723709 C26,35.3368154 28.2212237,30.8754513 32,28.0212728 Z M72.2980706,25 C85.9369076,25 94,40.8938715 94,60.4999555 C94,80.1060396 85.9369076,95.9999111 72.2980706,95.9999111 C58.6592336,95.9999111 50.5,80.1060396 50.5,60.4999555 C50.5,40.8938715 58.6592336,25 72.2980706,25 Z M72.2715489,35.5744548 C66.1575875,35.5744548 62.5,46.7339816 62.5,60.4999555 C62.5,74.2659295 66.1575875,85.4254563 72.2715489,85.4254563 C78.3855103,85.4254563 82,74.2659295 82,60.4999555 C82,46.7339816 78.3855103,35.5744548 72.2715489,35.5744548 Z" id="Combined-Shape-Copy" fill="#000000"></path>
    </g>
</svg>