<?xml version="1.0" encoding="UTF-8"?>
<svg width="180px" height="64px" viewBox="0 0 180 64" version="1.1" xmlns="http://www.w3.org/2000/svg" xmlns:xlink="http://www.w3.org/1999/xlink">
    <title>Wordmark</title>
    <g id="Wordmark" stroke="none" stroke-width="1" fill="none" fill-rule="evenodd">
        <g id="Decade" transform="translate(4, 5)" fill="#FFFFFF" fill-rule="nonzero">
            <path d="M1.07200018,52.5760086 L18.272003,52.5760086 L18.272003,52.5760086 C23.8080039,52.5760086 27.3600045,51.5200084 30.624005,48.832008 C35.6160058,44.7040073 38.8480064,36.9600061 38.8480064,28.1920046 C38.8480064,19.6480032 35.8080059,12.6080021 31.0080051,8.44800138 C27.0720044,5.02400082 22.1120036,3.84000063 13.5040022,3.84000063 L1.02400017,3.84000063 C0.458460491,3.84000063 -1.03887953e-16,4.29846112 0,4.8640008 C7.40004216e-17,5.4682601 0.405222597,5.99744064 0.988581381,6.1549901 L2.19200036,6.48000106 C3.48549292,6.82933847 4.38400072,8.0027006 4.38400072,9.34253627 L4.38400072,46.9412488 C4.38400072,48.285516 3.48736123,49.464711 2.19200036,49.8240082 L1.03299932,50.1454829 C0.422549191,50.3148048 -7.75810874e-17,50.8705108 0,51.5040084 C7.2505134e-17,52.0960578 0.479950827,52.5760086 1.07200018,52.5760086 Z M17.2800028,49.4400081 C13.4720022,49.4400081 12.096002,48.3840079 12.096002,45.6320075 L12.096002,9.04000115 C12.096002,7.93543165 12.9914325,7.04000115 14.096002,7.04000115 L16.4800027,7.04000115 L16.4800027,7.04000115 C21.1840035,7.04000115 24.320004,8.44800138 26.4960043,11.6160019 C28.9280047,15.1680025 30.0800049,20.4160033 30.0800049,27.9680046 C30.0800049,35.6160058 28.9280047,41.3440068 26.5280043,44.9280074 C24.416004,48.0640079 21.5360035,49.4400081 17.2800028,49.4400081 Z" id="Shape"></path>
            <path d="M53.9440022,53.2480087 C59.0146936,53.2480087 63.1224702,50.6093567 65.2685262,45.927472 C65.4165287,45.6045865 65.586162,45.1432918 65.7774262,44.5435878 L65.7774108,44.5435828 C65.9446662,44.0191579 65.8052314,43.4452344 65.416004,43.0560071 C65.1219962,42.7619992 64.6453153,42.7619992 64.3513075,43.0560071 C64.3258689,43.0814457 64.3022863,43.108675 64.2807412,43.1374857 C64.0188533,43.4877254 63.8002119,43.7593706 63.6248343,43.9524343 C61.6872142,46.0854557 59.1251224,47.2320077 56.1520025,47.2320077 C50.7120016,47.2320077 48.0240012,42.880007 48.0240012,34.0800056 L48.0240012,33.8880056 C55.6863929,33.8880056 61.4331866,33.8880056 65.2643825,33.8880056 C65.2966822,33.8880056 65.3305203,33.8880056 65.3658966,33.8880056 L65.3658966,33.887989 C66.1226283,33.887989 66.7360806,33.2745367 66.7360806,32.517805 C66.7360806,32.4905749 66.7352688,32.4633509 66.7336465,32.4361692 C66.7336465,32.4361692 66.7336465,32.4361692 66.7336465,32.4361692 C66.1957059,23.4233515 62.2777438,18.368003 55.2240024,18.368003 C46.5200009,18.368003 40.536,25.6640042 40.536,36.320006 C40.536,46.4000076 45.8800008,53.2480087 53.9440022,53.2480087 Z M54.6480023,21.2480035 C57.7840028,21.2480035 59.4480031,23.6480039 59.4480031,28.2880046 C59.4480031,28.2880046 59.4480031,28.2880046 59.4480031,28.2880046 C59.4480031,29.6439216 58.3818721,30.7601963 57.027386,30.8224716 L48.1200012,31.2320051 L48.1200012,31.2320051 C48.6320013,24.8320041 50.9040017,21.2480035 54.6480023,21.2480035 Z" id="Shape"></path>
            <path d="M81.5920021,53.2480087 C86.2583804,53.2480087 89.6661249,50.9554973 91.8717442,46.4269828 C92.0923216,45.9740995 92.3715558,45.2951752 92.7094467,44.3902098 L92.7094613,44.3902152 C92.8973753,43.8869295 92.7588337,43.3199259 92.3600038,42.9600051 C92.0405342,42.6717023 91.5478374,42.696968 91.2595346,43.0164376 C91.2396831,43.0384351 91.2211025,43.0615471 91.2038835,43.085661 C90.9132454,43.4926199 90.6767184,43.8028494 90.4942762,44.0163307 C88.6238638,46.2049578 86.463447,47.1680077 83.7680024,47.1680077 C78.8720016,47.1680077 76.2480012,42.720007 76.2480012,34.4320056 C76.2480012,26.2400043 78.7760016,21.3120035 83.0960023,21.3120035 C85.5920027,21.3120035 86.2960028,23.3280038 86.6160029,26.8800044 C86.8720029,29.0880048 87.512003,31.0080051 89.7840034,31.0080051 C91.7360037,31.0080051 92.9520039,29.4720048 92.9520039,26.9440044 C92.9520039,22.1440036 88.6320032,18.368003 82.8720023,18.368003 C74.6160009,18.368003 68.728,25.8880042 68.728,36.320006 C68.728,46.1760076 74.0720008,53.2480087 81.5920021,53.2480087 Z" id="Path"></path>
            <path d="M100.336001,53.2480087 C103.408002,53.2480087 106.192002,51.4560084 108.528002,48.0000079 L108.688002,48.0000079 C109.200003,51.5200084 110.800003,53.2480087 113.904003,53.2480087 C115.803322,53.2480087 117.399084,52.5769871 118.883201,51.1446318 C119.176818,50.8612556 119.56786,50.408472 120.056328,49.7862811 L120.056324,49.7862781 C120.439696,49.2979542 120.474793,48.6213776 120.144004,48.0960079 C119.919847,47.7399934 119.449525,47.633102 119.09351,47.8572592 C119.040416,47.8906888 118.991656,47.9305497 118.948337,47.9759364 C118.647384,48.2912751 118.402045,48.4992853 118.212331,48.5999776 C117.918581,48.7558875 117.616807,48.832008 117.296004,48.832008 C115.888004,48.832008 115.408004,47.3600078 115.408004,43.4880071 L115.408004,30.0160049 C115.408004,25.1520041 115.088003,23.1360038 114.384003,21.6000035 C113.328003,19.5200032 111.152003,18.368003 107.760002,18.368003 C104.496002,18.368003 101.488001,19.3600032 99.0560008,21.1840035 C96.3360004,23.2960038 94.6400001,26.1760043 94.6400001,28.8640047 C94.6400001,31.2320051 95.8880003,32.8320054 97.6800006,32.8320054 C99.5360009,32.8320054 100.944001,31.1040051 100.944001,28.7680047 C100.944001,27.9360046 100.752001,27.0080044 100.752001,26.1120043 C100.752001,23.3600038 102.416001,21.6960036 105.040002,21.6960036 C107.632002,21.6960036 108.400002,23.3280038 108.400002,28.9600047 L108.400002,34.0480056 C98.2240007,36.0960059 93.84,39.5840065 93.84,45.6640075 C93.84,50.3040082 96.3680004,53.2480087 100.336001,53.2480087 Z M104.304002,47.8720078 C102.192001,47.8720078 101.168001,46.4000076 101.168001,43.4240071 C101.168001,39.6480065 102.832001,38.0800062 108.400002,36.704006 L108.400002,45.3760074 C107.408002,47.0080077 105.936002,47.8720078 104.304002,47.8720078 Z" id="Shape"></path>
            <path d="M130.514001,53.2480087 C133.842002,53.2480087 136.786003,51.6480085 138.866003,48.768008 L139.122003,48.896008 L139.122003,52.8640087 C139.122003,53.076086 139.293926,53.2480087 139.506003,53.2480087 C139.759523,53.2480087 140.010564,53.1981077 140.244811,53.101151 L149.036576,49.4621756 C149.349771,49.3325418 149.554005,49.0269714 149.554005,48.688008 C149.554005,48.3521124 149.343036,48.0524107 149.026828,47.939103 L147.634004,47.4400078 C146.482362,47.0273361 145.714004,45.935809 145.714004,44.7124623 L145.714004,0.464000076 C145.714004,0.20773991 145.506264,-6.27656384e-17 145.250004,0 C144.942371,5.65111745e-17 144.63644,0.0456218028 144.342192,0.135376664 L135.222157,2.91727408 C134.858477,3.02820795 134.610002,3.36377757 134.610002,3.74400061 C134.610002,4.13258684 134.840623,4.48411524 135.197072,4.63885261 L136.674002,5.28000087 C137.927193,5.82402159 138.738003,7.05991388 138.738003,8.42609293 L138.738003,19.7760032 L138.738003,19.7760032 C136.850003,18.8480031 134.834002,18.368003 132.978002,18.368003 C124.882001,18.368003 119.282,25.7280042 119.282,36.352006 C119.282,46.0480075 124.178,53.2480087 130.514001,53.2480087 Z M133.458002,48.800008 C129.394001,48.800008 126.994001,43.5840071 126.994001,35.2960058 C126.994001,26.9440044 129.650001,21.3440035 133.650002,21.3440035 C136.786003,21.3440035 138.738003,24.320004 138.738003,28.9600047 L138.738003,45.3440035 C137.522003,47.4560078 135.634002,48.800008 133.458002,48.800008 Z" id="Shape"></path>
            <path d="M161.944002,53.2480087 C167.014694,53.2480087 171.12247,50.6093567 173.268526,45.927472 C173.416529,45.6045865 173.586162,45.1432918 173.777426,44.5435878 L173.777411,44.5435828 C173.944666,44.0191579 173.805231,43.4452344 173.416004,43.0560071 C173.121996,42.7619992 172.645315,42.7619992 172.351308,43.0560071 C172.325869,43.0814457 172.302286,43.108675 172.280741,43.1374857 C172.018853,43.4877254 171.800212,43.7593706 171.624834,43.9524343 C169.687214,46.0854557 167.125122,47.2320077 164.152003,47.2320077 C158.712002,47.2320077 156.024001,42.880007 156.024001,34.0800056 L156.024001,33.8880056 C163.686393,33.8880056 169.433187,33.8880056 173.264382,33.8880056 C173.296682,33.8880056 173.33052,33.8880056 173.365897,33.8880056 L173.365897,33.887989 C174.122628,33.887989 174.736081,33.2745367 174.736081,32.517805 C174.736081,32.4905749 174.735269,32.4633509 174.733646,32.4361692 C174.733646,32.4361692 174.733646,32.4361692 174.733646,32.4361692 C174.195706,23.4233515 170.277744,18.368003 163.224002,18.368003 C154.520001,18.368003 148.536,25.6640042 148.536,36.320006 C148.536,46.4000076 153.880001,53.2480087 161.944002,53.2480087 Z M162.648002,21.2480035 C165.784003,21.2480035 167.448003,23.6480039 167.448003,28.2880046 C167.448003,28.2880046 167.448003,28.2880046 167.448003,28.2880046 C167.448003,29.6439216 166.381872,30.7601963 165.027386,30.8224716 L156.120001,31.2320051 L156.120001,31.2320051 C156.632001,24.8320041 158.904002,21.2480035 162.648002,21.2480035 Z" id="Shape-Copy"></path>
        </g>
    </g>
</svg>